<svg version="1.1" id="Layer_1" xmlns="http://www.w3.org/2000/svg" x="0px" y="0px" width="153px" height="55px" viewBox="0 0 153 55" enable-background="new 0 0 153 55" xml:space="preserve"><path opacity=".3" fill="#FDFEFF" stroke="#E0E1E0" stroke-miterlimit="10" d="M152.66 51.38c0 1.54-.69 2.79-1.53 2.78H2.33c-.85 0-1.54-1.24-1.54-2.78V3.28C.8 1.73 1.5.5 2.33.5h148.8c.84 0 1.53 1.24 1.53 2.77v48.11z"/><path fill="#6BBE5E" d="M24.23 47.64V10.92H8.66V22.7S7.5 39.05 24.23 47.64z"/><path fill="#339044" d="M24.23 47.64V10.92h15.42V22.7s1.14 16.34-15.42 24.93z"/><path fill="#DFE0E0" d="M39.65 10.92h-31V6.97s.49-1.63 2.38-1.89H37.3s1.76.32 2.35 2.12l-.01 3.72z"/><circle fill="#FFF" cx="12.4" cy="8.01" r=".94"/><circle fill="#FFF" cx="15.77" cy="8.01" r=".94"/><circle fill="#FFF" cx="23.96" cy="22.16" r="5.19"/><path fill="#FFF" d="M24.2 41.77l-3.15-3.19s3.1-2.7 6.23 0l-3.08 3.2zM19.8 37.14l-1.03-1.32s4.8-4.38 10.74-.2l-.98 1.35s-4.52-3.51-8.73.17z"/><path fill="#FFF" d="M31.05 32.19l-.67 1.62s-6.59-4.48-12.48.23l-.77-1.68s6.42-5.03 13.92-.17z"/><path fill="#547DBF" d="M58.26 16.59v3.33h7.96a7.06 7.06 0 0 1-1.81 4.2 8.14 8.14 0 0 1-6.15 2.43 8.73 8.73 0 0 1-8.72-8.85 8.73 8.73 0 0 1 14.72-6.47L66.6 8.9a11.5 11.5 0 0 0-8.34-3.38c-6.7 0-12.35 5.47-12.35 12.18 0 6.7 5.64 12.17 12.35 12.17 3.63 0 6.36-1.19 8.5-3.4 2.19-2.2 2.88-5.3 2.88-7.79 0-.77-.05-1.48-.17-2.08h-11.2z"/><path fill="#E94636" d="M79.59 13.88a7.75 7.75 0 0 0-7.9 7.87 7.77 7.77 0 0 0 7.9 7.86 7.76 7.76 0 0 0 7.88-7.86 7.75 7.75 0 0 0-7.88-7.87m0 12.63c-2.39 0-4.44-1.96-4.44-4.76 0-2.83 2.06-4.77 4.44-4.77 2.38 0 4.43 1.94 4.43 4.77 0 2.8-2.05 4.76-4.43 4.76"/><path fill="#547DBF" d="M118.26 15.64h-.13a5.45 5.45 0 0 0-4.14-1.76c-3.92 0-7.34 3.43-7.34 7.87 0 4.4 3.42 7.86 7.34 7.86 1.88 0 3.37-.84 4.15-1.79h.12v1.1c0 3-1.62 4.61-4.2 4.61-2.1 0-3.42-1.52-3.96-2.8l-3 1.24a7.48 7.48 0 0 0 6.96 4.64c4.05 0 7.47-2.38 7.47-8.18V14.29h-3.27v1.35zm-3.97 10.87c-2.38 0-4.2-2.03-4.2-4.76 0-2.78 1.82-4.77 4.2-4.77 2.35 0 4.2 2.03 4.2 4.8.01 2.74-1.85 4.73-4.2 4.73"/><path fill="#F7BB17" d="M97.18 13.88c-4.35 0-7.9 3.3-7.9 7.87a7.77 7.77 0 0 0 7.9 7.86 7.76 7.76 0 0 0 7.88-7.86 7.75 7.75 0 0 0-7.88-7.87m0 12.63c-2.39 0-4.44-1.96-4.44-4.76 0-2.83 2.06-4.77 4.44-4.77 2.38 0 4.43 1.94 4.43 4.77 0 2.8-2.05 4.76-4.43 4.76"/><path fill="#34A750" d="M124.24 5.83h3.4V29.6h-3.4z"/><path fill="#E94636" d="M138.12 26.5a4 4 0 0 1-3.82-2.38l10.51-4.34-.35-.9c-.65-1.75-2.65-5-6.72-5-4.05 0-7.42 3.18-7.42 7.87a7.68 7.68 0 0 0 7.8 7.86c3.6 0 5.68-2.21 6.55-3.48l-2.68-1.79a4.5 4.5 0 0 1-3.87 2.17zm-.25-9.67c1.4 0 2.59.72 2.98 1.74l-7.1 2.93c0-3.3 2.34-4.67 4.12-4.67"/><text transform="translate(44.9 46.5)" fill="#5E5D5E" font-family="'Arial'" font-size="15">Loja Segura</text></svg>
